<svg width="25" height="25" viewBox="0 0 25 25" fill="none" xmlns="http://www.w3.org/2000/svg">
<path d="M12.5012 2.00767C14.7224 2.00767 16.9435 2.01143 19.1653 2.00392C19.5422 2.00266 19.831 2.12283 19.9789 2.47518C20.1274 2.83004 19.9977 3.11981 19.7347 3.38079C17.5287 5.57002 15.3271 7.76364 13.1229 9.95475C12.6988 10.3759 12.3024 10.3747 11.8783 9.95287C9.66913 7.7555 7.46624 5.55187 5.24699 3.36515C4.75809 2.88324 4.96951 2.18604 5.51252 2.03646C5.61571 2.00767 5.7296 2.0083 5.83846 2.0083C8.05959 2.00704 10.2807 2.00704 12.5025 2.00704L12.5012 2.00767Z" fill="white"/>
<path d="M12.4858 23.0005C10.2647 23.0005 8.04355 22.9973 5.82242 23.0036C5.45432 23.0048 5.17935 22.8797 5.02457 22.5423C4.88048 22.2275 4.96101 21.9359 5.26115 21.6367C7.46971 19.4387 9.67889 17.2414 11.8881 15.044C12.299 14.6353 12.7023 14.6353 13.1157 15.0465C15.3255 17.2432 17.534 19.4412 19.7426 21.6392C20.0396 21.9353 20.1195 22.2325 19.9735 22.5467C19.8175 22.8834 19.5406 23.0048 19.1732 23.0036C16.9438 22.9973 14.7152 23.0005 12.4858 23.0005Z" fill="white"/>
<path d="M3.45072 13.2531C3.19974 13.2531 2.94813 13.2563 2.69715 13.2525C2.27381 13.2456 1.95175 12.9241 1.94923 12.5119C1.94672 12.0846 2.26689 11.7606 2.70533 11.7574C3.20729 11.7537 3.70988 11.7531 4.21185 11.7574C4.63456 11.7612 4.95788 12.0852 4.96039 12.4975C4.96291 12.9235 4.64085 13.2469 4.20367 13.2531C3.95269 13.2563 3.70171 13.2531 3.4501 13.2531H3.45072Z" fill="white"/>
<path d="M7.98485 13.2534C7.73387 13.2534 7.48225 13.2559 7.23127 13.2534C6.79284 13.2478 6.47078 12.9257 6.47266 12.4997C6.47455 12.0843 6.79347 11.7621 7.21869 11.7584C7.72883 11.7534 8.23898 11.7528 8.74912 11.7584C9.16805 11.7634 9.48697 12.0949 9.48508 12.5109C9.48319 12.9244 9.16176 13.2466 8.73905 13.2534C8.48807 13.2578 8.23709 13.2541 7.98548 13.2541L7.98485 13.2534Z" fill="white"/>
<path d="M12.4938 13.2531C12.2503 13.2531 12.0069 13.255 11.7641 13.2531C11.3219 13.2488 10.996 12.9329 10.9941 12.5106C10.9923 12.0834 11.3131 11.7612 11.7521 11.7574C12.2541 11.7537 12.7567 11.7531 13.2587 11.7574C13.6814 11.7612 14.0034 12.0859 14.0059 12.4987C14.0078 12.9241 13.6858 13.2469 13.2473 13.2525C12.9963 13.2556 12.7454 13.2525 12.4938 13.2525V13.2531Z" fill="white"/>
<path d="M17.0216 13.2534C16.7706 13.2534 16.519 13.2565 16.268 13.2527C15.8327 13.2465 15.5119 12.9193 15.5157 12.4927C15.5201 12.0792 15.8409 11.7614 16.268 11.7577C16.7699 11.7533 17.2725 11.7533 17.7745 11.7577C18.1985 11.7614 18.523 12.083 18.5268 12.4933C18.5312 12.9212 18.2104 13.2465 17.7739 13.2527C17.5229 13.2565 17.2719 13.2534 17.0203 13.2534H17.0216Z" fill="white"/>
<path d="M21.5525 13.2531C21.2933 13.2531 21.0342 13.2575 20.7757 13.2518C20.3561 13.2437 20.0378 12.9153 20.0391 12.4999C20.0403 12.0839 20.3592 11.7612 20.7832 11.7574C21.2933 11.7524 21.8035 11.7518 22.3136 11.7574C22.7332 11.7618 23.0521 12.0927 23.0509 12.5081C23.0496 12.9222 22.7288 13.245 22.3061 13.2518C22.0551 13.2562 21.8041 13.2525 21.5525 13.2525V13.2531Z" fill="white"/>
</svg>
