<svg width="25" height="25" viewBox="0 0 25 25" fill="none" xmlns="http://www.w3.org/2000/svg">
<rect width="14.6008" height="14.6667" rx="2" transform="matrix(-1 0 0 1 22.5 8.8335)" fill="white"/>
<path d="M7.22103 1.72598C7.53932 1.42467 8.05368 1.42467 8.37197 1.72598L10.8164 4.04147C11.1347 4.34288 11.1347 4.82996 10.8164 5.13137L8.37197 7.44618C8.05368 7.74759 7.53932 7.74759 7.22103 7.44618C6.90274 7.14477 6.90274 6.6577 7.22103 6.35629L8.27266 5.35802H5.75929C4.85916 5.35802 4.12964 6.05006 4.12964 6.90123V10.277C4.12964 10.7038 3.76476 11.0486 3.31482 11.0486C2.86489 11.0486 2.5 10.7038 2.5 10.277V6.90123C2.5 5.19647 3.95929 3.81481 5.75929 3.81481H8.27266L7.22103 2.81727C6.90274 2.51587 6.90274 2.02732 7.22103 1.72598Z" fill="white"/>
</svg>
