<svg width="25" height="25" viewBox="0 0 25 25" fill="none" xmlns="http://www.w3.org/2000/svg">
<path d="M1.9834 12.4955C1.9834 10.2847 1.9834 8.07382 1.9834 5.86299C1.9834 5.44432 2.13454 5.1775 2.45565 5.05502C2.80498 4.9213 3.08971 5.03253 3.34559 5.28873C5.55069 7.49518 7.75955 9.69789 9.96591 11.9025C10.3566 12.2924 10.3598 12.7054 9.97406 13.091C7.76206 15.3018 5.54818 17.5101 3.33681 19.7216C3.08783 19.9709 2.80812 20.0815 2.46757 19.9516C2.13392 19.8235 1.9834 19.566 1.9834 19.1517C1.9834 16.9328 1.9834 14.7144 1.9834 12.4955Z" fill="white"/>
<path d="M23.017 12.4967C23.017 14.7076 23.017 16.9184 23.017 19.1292C23.017 19.5641 22.8709 19.8222 22.5316 19.9516C22.1804 20.0853 21.9007 19.9597 21.6461 19.7047C19.4472 17.5033 17.244 15.3062 15.0427 13.1072C14.6419 12.7067 14.6394 12.2986 15.0352 11.9031C17.2365 9.70413 19.4397 7.50643 21.6385 5.3056C21.8436 5.10001 22.0669 4.96879 22.3654 5.00503C22.7461 5.0519 23.0158 5.37621 23.0164 5.79425C23.0177 8.0282 23.0164 10.2628 23.0164 12.4967H23.017Z" fill="white"/>
<path d="M13.2513 3.49132C13.2513 3.74934 13.2557 4.00675 13.2501 4.26477C13.2419 4.68336 12.914 4.9995 12.4963 4.99762C12.0825 4.99637 11.7558 4.67524 11.752 4.2554C11.747 3.74747 11.7464 3.23954 11.752 2.73223C11.7577 2.31301 12.0869 1.99875 12.5058 2C12.9202 2.00125 13.2438 2.32113 13.2513 2.7416C13.2557 2.9915 13.2519 3.24141 13.2519 3.49132H13.2513Z" fill="white"/>
<path d="M13.2514 8.00044C13.2514 8.25847 13.2564 8.51587 13.2501 8.7739C13.2407 9.18937 12.9071 9.50363 12.4889 9.49925C12.0857 9.49488 11.7578 9.17812 11.7527 8.77265C11.7465 8.25722 11.7465 7.74117 11.7527 7.22574C11.7578 6.81901 12.0838 6.50476 12.4895 6.50101C12.9078 6.49726 13.2407 6.81152 13.2501 7.22699C13.2558 7.48439 13.2514 7.74242 13.2514 8.00044Z" fill="white"/>
<path d="M13.2514 12.502C13.2514 12.7601 13.2564 13.0175 13.2501 13.2755C13.2401 13.6903 12.9065 14.0046 12.4883 14.0002C12.0851 13.9959 11.7578 13.6785 11.7527 13.273C11.7465 12.7576 11.7465 12.2415 11.7527 11.7261C11.7578 11.3194 12.0851 11.0057 12.4902 11.002C12.9084 10.9982 13.2407 11.3131 13.2501 11.7286C13.2558 11.986 13.2514 12.244 13.2514 12.502Z" fill="white"/>
<path d="M11.7516 17.0021C11.7516 16.7441 11.7472 16.4867 11.7529 16.2287C11.7623 15.8126 12.0934 15.4996 12.5135 15.504C12.9167 15.5077 13.2452 15.8238 13.2503 16.2293C13.2572 16.7447 13.2572 17.2608 13.2503 17.7762C13.2446 18.1917 12.9085 18.5059 12.4903 18.5022C12.0871 18.4984 11.7623 18.1811 11.7535 17.7762C11.7479 17.5188 11.7523 17.2608 11.7523 17.0028L11.7516 17.0021Z" fill="white"/>
<path d="M11.7516 21.5018C11.7516 21.2438 11.7472 20.9864 11.7529 20.7283C11.7623 20.3116 12.0934 19.9986 12.5129 20.003C12.9167 20.0067 13.2452 20.3222 13.2503 20.7277C13.2572 21.2431 13.2572 21.7592 13.2503 22.2746C13.2446 22.6907 12.9091 23.005 12.4903 23.0006C12.0871 22.9968 11.7617 22.6795 11.7529 22.2752C11.7472 22.0178 11.7516 21.7598 11.7516 21.5018Z" fill="white"/>
</svg>
